<mxfile host="app.diagrams.net" modified="2022-01-18T11:50:59.085Z" agent="5.0 (X11; Linux x86_64) AppleWebKit/537.36 (KHTML, like Gecko) Chrome/97.0.4692.71 Safari/537.36" etag="C_2iNvDU7NuVVyRIt2CD" version="16.2.7" type="github">
  <diagram id="JJzUDjLpjV40GuRbMEOA" name="Page-1">
    <mxGraphModel dx="1422" dy="737" grid="1" gridSize="10" guides="1" tooltips="1" connect="1" arrows="1" fold="1" page="1" pageScale="1" pageWidth="827" pageHeight="1169" math="0" shadow="0">
      <root>
        <mxCell id="0" />
        <mxCell id="1" parent="0" />
        <mxCell id="ASzSuAnNYXdAWo7c-C4e-20" value="deploy (dev)" style="rounded=1;whiteSpace=wrap;html=1;fillColor=#fff2cc;strokeColor=#d6b656;" parent="1" vertex="1">
          <mxGeometry x="1320" y="100" width="120" height="60" as="geometry" />
        </mxCell>
        <mxCell id="ASzSuAnNYXdAWo7c-C4e-30" style="edgeStyle=none;rounded=0;orthogonalLoop=1;jettySize=auto;html=1;strokeColor=default;" parent="1" source="ASzSuAnNYXdAWo7c-C4e-21" target="ASzSuAnNYXdAWo7c-C4e-20" edge="1">
          <mxGeometry relative="1" as="geometry" />
        </mxCell>
        <mxCell id="ASzSuAnNYXdAWo7c-C4e-21" value="docker-push (dev)" style="rounded=1;whiteSpace=wrap;html=1;fillColor=#fff2cc;strokeColor=#d6b656;" parent="1" vertex="1">
          <mxGeometry x="1160" y="40" width="120" height="60" as="geometry" />
        </mxCell>
        <mxCell id="ASzSuAnNYXdAWo7c-C4e-29" style="edgeStyle=none;rounded=0;orthogonalLoop=1;jettySize=auto;html=1;strokeColor=default;" parent="1" source="ASzSuAnNYXdAWo7c-C4e-22" target="ASzSuAnNYXdAWo7c-C4e-20" edge="1">
          <mxGeometry relative="1" as="geometry" />
        </mxCell>
        <mxCell id="ASzSuAnNYXdAWo7c-C4e-22" value="upload-static (dev)" style="rounded=1;whiteSpace=wrap;html=1;fillColor=#fff2cc;strokeColor=#d6b656;" parent="1" vertex="1">
          <mxGeometry x="1160" y="160" width="120" height="60" as="geometry" />
        </mxCell>
        <mxCell id="ASzSuAnNYXdAWo7c-C4e-26" style="edgeStyle=none;rounded=0;orthogonalLoop=1;jettySize=auto;html=1;strokeColor=default;" parent="1" source="ASzSuAnNYXdAWo7c-C4e-23" target="ASzSuAnNYXdAWo7c-C4e-21" edge="1">
          <mxGeometry relative="1" as="geometry" />
        </mxCell>
        <mxCell id="ASzSuAnNYXdAWo7c-C4e-23" value="docker-build (dev)" style="rounded=1;whiteSpace=wrap;html=1;fillColor=#fff2cc;strokeColor=#d6b656;" parent="1" vertex="1">
          <mxGeometry x="1000" y="100" width="120" height="60" as="geometry" />
        </mxCell>
        <mxCell id="ASzSuAnNYXdAWo7c-C4e-25" value="" style="edgeStyle=none;rounded=0;orthogonalLoop=1;jettySize=auto;html=1;strokeColor=default;" parent="1" source="ASzSuAnNYXdAWo7c-C4e-24" target="ASzSuAnNYXdAWo7c-C4e-23" edge="1">
          <mxGeometry relative="1" as="geometry" />
        </mxCell>
        <mxCell id="ASzSuAnNYXdAWo7c-C4e-28" style="edgeStyle=none;rounded=0;orthogonalLoop=1;jettySize=auto;html=1;strokeColor=default;" parent="1" source="ASzSuAnNYXdAWo7c-C4e-24" target="ASzSuAnNYXdAWo7c-C4e-22" edge="1">
          <mxGeometry relative="1" as="geometry" />
        </mxCell>
        <mxCell id="ASzSuAnNYXdAWo7c-C4e-24" value="bundle (dev)" style="rounded=1;whiteSpace=wrap;html=1;fillColor=#fff2cc;strokeColor=#d6b656;" parent="1" vertex="1">
          <mxGeometry x="840" y="160" width="120" height="60" as="geometry" />
        </mxCell>
        <mxCell id="ASzSuAnNYXdAWo7c-C4e-32" style="edgeStyle=none;rounded=0;orthogonalLoop=1;jettySize=auto;html=1;strokeColor=default;" parent="1" source="ASzSuAnNYXdAWo7c-C4e-31" target="ASzSuAnNYXdAWo7c-C4e-24" edge="1">
          <mxGeometry relative="1" as="geometry" />
        </mxCell>
        <mxCell id="ASzSuAnNYXdAWo7c-C4e-31" value="approve (dev)" style="rounded=1;whiteSpace=wrap;html=1;fillColor=#e1d5e7;strokeColor=#9673a6;" parent="1" vertex="1">
          <mxGeometry x="680" y="160" width="120" height="60" as="geometry" />
        </mxCell>
        <mxCell id="ASzSuAnNYXdAWo7c-C4e-54" style="edgeStyle=none;rounded=0;orthogonalLoop=1;jettySize=auto;html=1;strokeColor=default;" parent="1" source="ASzSuAnNYXdAWo7c-C4e-33" target="ASzSuAnNYXdAWo7c-C4e-34" edge="1">
          <mxGeometry relative="1" as="geometry" />
        </mxCell>
        <mxCell id="ASzSuAnNYXdAWo7c-C4e-55" style="edgeStyle=none;rounded=0;orthogonalLoop=1;jettySize=auto;html=1;strokeColor=default;" parent="1" source="ASzSuAnNYXdAWo7c-C4e-33" target="ASzSuAnNYXdAWo7c-C4e-35" edge="1">
          <mxGeometry relative="1" as="geometry" />
        </mxCell>
        <mxCell id="ASzSuAnNYXdAWo7c-C4e-56" style="edgeStyle=none;rounded=0;orthogonalLoop=1;jettySize=auto;html=1;strokeColor=default;" parent="1" source="ASzSuAnNYXdAWo7c-C4e-33" target="ASzSuAnNYXdAWo7c-C4e-37" edge="1">
          <mxGeometry relative="1" as="geometry" />
        </mxCell>
        <mxCell id="ASzSuAnNYXdAWo7c-C4e-57" style="edgeStyle=none;rounded=0;orthogonalLoop=1;jettySize=auto;html=1;strokeColor=default;" parent="1" source="ASzSuAnNYXdAWo7c-C4e-33" target="ASzSuAnNYXdAWo7c-C4e-31" edge="1">
          <mxGeometry relative="1" as="geometry">
            <Array as="points">
              <mxPoint x="370" y="190" />
            </Array>
          </mxGeometry>
        </mxCell>
        <mxCell id="ASzSuAnNYXdAWo7c-C4e-33" value="Start" style="ellipse;whiteSpace=wrap;html=1;" parent="1" vertex="1">
          <mxGeometry x="220" y="360" width="60" height="60" as="geometry" />
        </mxCell>
        <mxCell id="ASzSuAnNYXdAWo7c-C4e-52" style="edgeStyle=none;rounded=0;orthogonalLoop=1;jettySize=auto;html=1;strokeColor=default;exitX=1;exitY=0.5;exitDx=0;exitDy=0;" parent="1" source="ASzSuAnNYXdAWo7c-C4e-34" target="ASzSuAnNYXdAWo7c-C4e-49" edge="1">
          <mxGeometry relative="1" as="geometry" />
        </mxCell>
        <mxCell id="ASzSuAnNYXdAWo7c-C4e-70" style="edgeStyle=none;orthogonalLoop=1;jettySize=auto;html=1;strokeColor=default;exitX=1;exitY=0.5;exitDx=0;exitDy=0;curved=1;" parent="1" source="ASzSuAnNYXdAWo7c-C4e-34" target="ASzSuAnNYXdAWo7c-C4e-63" edge="1">
          <mxGeometry relative="1" as="geometry">
            <Array as="points">
              <mxPoint x="480" y="580" />
            </Array>
          </mxGeometry>
        </mxCell>
        <mxCell id="ASzSuAnNYXdAWo7c-C4e-34" value="lint" style="rounded=1;whiteSpace=wrap;html=1;" parent="1" vertex="1">
          <mxGeometry x="360" y="350" width="120" height="60" as="geometry" />
        </mxCell>
        <mxCell id="ASzSuAnNYXdAWo7c-C4e-51" value="" style="edgeStyle=none;rounded=0;orthogonalLoop=1;jettySize=auto;html=1;strokeColor=default;" parent="1" source="ASzSuAnNYXdAWo7c-C4e-35" target="ASzSuAnNYXdAWo7c-C4e-36" edge="1">
          <mxGeometry relative="1" as="geometry" />
        </mxCell>
        <mxCell id="ASzSuAnNYXdAWo7c-C4e-35" value="bundle (e2e)" style="rounded=1;whiteSpace=wrap;html=1;" parent="1" vertex="1">
          <mxGeometry x="360" y="450" width="120" height="60" as="geometry" />
        </mxCell>
        <mxCell id="ASzSuAnNYXdAWo7c-C4e-50" value="" style="edgeStyle=none;rounded=0;orthogonalLoop=1;jettySize=auto;html=1;strokeColor=default;exitX=1;exitY=0.5;exitDx=0;exitDy=0;entryX=0;entryY=0.5;entryDx=0;entryDy=0;" parent="1" source="ASzSuAnNYXdAWo7c-C4e-36" target="ASzSuAnNYXdAWo7c-C4e-49" edge="1">
          <mxGeometry relative="1" as="geometry" />
        </mxCell>
        <mxCell id="ASzSuAnNYXdAWo7c-C4e-71" style="edgeStyle=none;rounded=0;orthogonalLoop=1;jettySize=auto;html=1;strokeColor=default;exitX=1;exitY=0.5;exitDx=0;exitDy=0;entryX=0;entryY=0.5;entryDx=0;entryDy=0;" parent="1" source="ASzSuAnNYXdAWo7c-C4e-36" target="ASzSuAnNYXdAWo7c-C4e-63" edge="1">
          <mxGeometry relative="1" as="geometry" />
        </mxCell>
        <mxCell id="ASzSuAnNYXdAWo7c-C4e-36" value="run-cypress-tests" style="rounded=1;whiteSpace=wrap;html=1;" parent="1" vertex="1">
          <mxGeometry x="520" y="450" width="120" height="60" as="geometry" />
        </mxCell>
        <mxCell id="ASzSuAnNYXdAWo7c-C4e-53" style="edgeStyle=none;orthogonalLoop=1;jettySize=auto;html=1;strokeColor=default;exitX=1;exitY=0.5;exitDx=0;exitDy=0;curved=1;" parent="1" source="ASzSuAnNYXdAWo7c-C4e-37" target="ASzSuAnNYXdAWo7c-C4e-49" edge="1">
          <mxGeometry relative="1" as="geometry">
            <Array as="points">
              <mxPoint x="660" y="570" />
            </Array>
          </mxGeometry>
        </mxCell>
        <mxCell id="ASzSuAnNYXdAWo7c-C4e-72" style="edgeStyle=none;rounded=0;orthogonalLoop=1;jettySize=auto;html=1;strokeColor=default;exitX=1;exitY=0.5;exitDx=0;exitDy=0;" parent="1" source="ASzSuAnNYXdAWo7c-C4e-37" target="ASzSuAnNYXdAWo7c-C4e-63" edge="1">
          <mxGeometry relative="1" as="geometry" />
        </mxCell>
        <mxCell id="ASzSuAnNYXdAWo7c-C4e-37" value="run-unit-tests" style="rounded=1;whiteSpace=wrap;html=1;" parent="1" vertex="1">
          <mxGeometry x="360" y="560" width="120" height="60" as="geometry" />
        </mxCell>
        <mxCell id="ASzSuAnNYXdAWo7c-C4e-38" value="deploy (staging)" style="rounded=1;whiteSpace=wrap;html=1;fillColor=#f8cecc;strokeColor=#b85450;" parent="1" vertex="1">
          <mxGeometry x="1320" y="300" width="120" height="60" as="geometry" />
        </mxCell>
        <mxCell id="ASzSuAnNYXdAWo7c-C4e-39" style="edgeStyle=none;rounded=0;orthogonalLoop=1;jettySize=auto;html=1;strokeColor=default;" parent="1" source="ASzSuAnNYXdAWo7c-C4e-40" target="ASzSuAnNYXdAWo7c-C4e-38" edge="1">
          <mxGeometry relative="1" as="geometry" />
        </mxCell>
        <mxCell id="ASzSuAnNYXdAWo7c-C4e-40" value="docker-push (staging)" style="rounded=1;whiteSpace=wrap;html=1;fillColor=#f8cecc;strokeColor=#b85450;" parent="1" vertex="1">
          <mxGeometry x="1160" y="240" width="120" height="60" as="geometry" />
        </mxCell>
        <mxCell id="ASzSuAnNYXdAWo7c-C4e-41" style="edgeStyle=none;rounded=0;orthogonalLoop=1;jettySize=auto;html=1;strokeColor=default;" parent="1" source="ASzSuAnNYXdAWo7c-C4e-42" target="ASzSuAnNYXdAWo7c-C4e-38" edge="1">
          <mxGeometry relative="1" as="geometry" />
        </mxCell>
        <mxCell id="ASzSuAnNYXdAWo7c-C4e-42" value="upload-static (staging)" style="rounded=1;whiteSpace=wrap;html=1;fillColor=#f8cecc;strokeColor=#b85450;" parent="1" vertex="1">
          <mxGeometry x="1160" y="360" width="120" height="60" as="geometry" />
        </mxCell>
        <mxCell id="ASzSuAnNYXdAWo7c-C4e-43" style="edgeStyle=none;rounded=0;orthogonalLoop=1;jettySize=auto;html=1;strokeColor=default;" parent="1" source="ASzSuAnNYXdAWo7c-C4e-44" target="ASzSuAnNYXdAWo7c-C4e-40" edge="1">
          <mxGeometry relative="1" as="geometry" />
        </mxCell>
        <mxCell id="ASzSuAnNYXdAWo7c-C4e-44" value="docker-build (staging)" style="rounded=1;whiteSpace=wrap;html=1;fillColor=#f8cecc;strokeColor=#b85450;" parent="1" vertex="1">
          <mxGeometry x="1000" y="300" width="120" height="60" as="geometry" />
        </mxCell>
        <mxCell id="ASzSuAnNYXdAWo7c-C4e-45" value="" style="edgeStyle=none;rounded=0;orthogonalLoop=1;jettySize=auto;html=1;strokeColor=default;" parent="1" source="ASzSuAnNYXdAWo7c-C4e-47" target="ASzSuAnNYXdAWo7c-C4e-44" edge="1">
          <mxGeometry relative="1" as="geometry" />
        </mxCell>
        <mxCell id="ASzSuAnNYXdAWo7c-C4e-46" style="edgeStyle=none;rounded=0;orthogonalLoop=1;jettySize=auto;html=1;strokeColor=default;" parent="1" source="ASzSuAnNYXdAWo7c-C4e-47" target="ASzSuAnNYXdAWo7c-C4e-42" edge="1">
          <mxGeometry relative="1" as="geometry" />
        </mxCell>
        <mxCell id="ASzSuAnNYXdAWo7c-C4e-47" value="bundle (staging)" style="rounded=1;whiteSpace=wrap;html=1;fillColor=#f8cecc;strokeColor=#b85450;" parent="1" vertex="1">
          <mxGeometry x="840" y="360" width="120" height="60" as="geometry" />
        </mxCell>
        <mxCell id="ASzSuAnNYXdAWo7c-C4e-48" style="edgeStyle=none;rounded=0;orthogonalLoop=1;jettySize=auto;html=1;strokeColor=default;" parent="1" source="ASzSuAnNYXdAWo7c-C4e-49" target="ASzSuAnNYXdAWo7c-C4e-47" edge="1">
          <mxGeometry relative="1" as="geometry" />
        </mxCell>
        <mxCell id="ASzSuAnNYXdAWo7c-C4e-49" value="approve (staging)" style="rounded=1;whiteSpace=wrap;html=1;fillColor=#e1d5e7;strokeColor=#9673a6;" parent="1" vertex="1">
          <mxGeometry x="680" y="360" width="120" height="60" as="geometry" />
        </mxCell>
        <mxCell id="ASzSuAnNYXdAWo7c-C4e-58" value="deploy (production)" style="rounded=1;whiteSpace=wrap;html=1;fillColor=#dae8fc;strokeColor=#6c8ebf;" parent="1" vertex="1">
          <mxGeometry x="1320" y="500" width="120" height="60" as="geometry" />
        </mxCell>
        <mxCell id="ASzSuAnNYXdAWo7c-C4e-68" style="edgeStyle=none;rounded=0;orthogonalLoop=1;jettySize=auto;html=1;strokeColor=default;" parent="1" source="ASzSuAnNYXdAWo7c-C4e-59" target="ASzSuAnNYXdAWo7c-C4e-58" edge="1">
          <mxGeometry relative="1" as="geometry" />
        </mxCell>
        <mxCell id="ASzSuAnNYXdAWo7c-C4e-59" value="docker-push (production)" style="rounded=1;whiteSpace=wrap;html=1;fillColor=#dae8fc;strokeColor=#6c8ebf;" parent="1" vertex="1">
          <mxGeometry x="1160" y="440" width="120" height="60" as="geometry" />
        </mxCell>
        <mxCell id="ASzSuAnNYXdAWo7c-C4e-69" style="edgeStyle=none;rounded=0;orthogonalLoop=1;jettySize=auto;html=1;strokeColor=default;" parent="1" source="ASzSuAnNYXdAWo7c-C4e-60" target="ASzSuAnNYXdAWo7c-C4e-58" edge="1">
          <mxGeometry relative="1" as="geometry" />
        </mxCell>
        <mxCell id="ASzSuAnNYXdAWo7c-C4e-60" value="upload-static (production)" style="rounded=1;whiteSpace=wrap;html=1;fillColor=#dae8fc;strokeColor=#6c8ebf;" parent="1" vertex="1">
          <mxGeometry x="1160" y="560" width="120" height="60" as="geometry" />
        </mxCell>
        <mxCell id="ASzSuAnNYXdAWo7c-C4e-67" style="edgeStyle=none;rounded=0;orthogonalLoop=1;jettySize=auto;html=1;strokeColor=default;" parent="1" source="ASzSuAnNYXdAWo7c-C4e-61" target="ASzSuAnNYXdAWo7c-C4e-59" edge="1">
          <mxGeometry relative="1" as="geometry" />
        </mxCell>
        <mxCell id="ASzSuAnNYXdAWo7c-C4e-61" value="docker-build (production)" style="rounded=1;whiteSpace=wrap;html=1;fillColor=#dae8fc;strokeColor=#6c8ebf;" parent="1" vertex="1">
          <mxGeometry x="1000" y="500" width="120" height="60" as="geometry" />
        </mxCell>
        <mxCell id="ASzSuAnNYXdAWo7c-C4e-65" style="edgeStyle=none;rounded=0;orthogonalLoop=1;jettySize=auto;html=1;strokeColor=default;" parent="1" source="ASzSuAnNYXdAWo7c-C4e-62" target="ASzSuAnNYXdAWo7c-C4e-61" edge="1">
          <mxGeometry relative="1" as="geometry" />
        </mxCell>
        <mxCell id="ASzSuAnNYXdAWo7c-C4e-66" style="edgeStyle=none;rounded=0;orthogonalLoop=1;jettySize=auto;html=1;strokeColor=default;" parent="1" source="ASzSuAnNYXdAWo7c-C4e-62" target="ASzSuAnNYXdAWo7c-C4e-60" edge="1">
          <mxGeometry relative="1" as="geometry" />
        </mxCell>
        <mxCell id="ASzSuAnNYXdAWo7c-C4e-62" value="bundle (production)" style="rounded=1;whiteSpace=wrap;html=1;fillColor=#dae8fc;strokeColor=#6c8ebf;" parent="1" vertex="1">
          <mxGeometry x="840" y="560" width="120" height="60" as="geometry" />
        </mxCell>
        <mxCell id="ASzSuAnNYXdAWo7c-C4e-64" value="" style="edgeStyle=none;rounded=0;orthogonalLoop=1;jettySize=auto;html=1;strokeColor=default;" parent="1" source="ASzSuAnNYXdAWo7c-C4e-63" target="ASzSuAnNYXdAWo7c-C4e-62" edge="1">
          <mxGeometry relative="1" as="geometry" />
        </mxCell>
        <mxCell id="ASzSuAnNYXdAWo7c-C4e-63" value="approve (production)" style="rounded=1;whiteSpace=wrap;html=1;fillColor=#e1d5e7;strokeColor=#9673a6;" parent="1" vertex="1">
          <mxGeometry x="680" y="560" width="120" height="60" as="geometry" />
        </mxCell>
      </root>
    </mxGraphModel>
  </diagram>
</mxfile>
